<?xml version="1.0" standalone="no"?>
<svg xmlns="http://www.w3.org/2000/svg" version="1.1" width="370" height="370">
	<!-- Created with https://api.qrserver.com (QR Code API, see goQR.me/api for information) -->
	<title>QR Code</title>
	<desc>https://f2c2fde9-590d-4849-a746-8a97898ac57b-00-2kypipbtj6yaw.sisko.replit.dev/</desc>
	<rect style="fill:rgb(255, 255, 255);fill-opacity:1" x="0" y="0" width="370" height="370" />
	<g id="elements">
		<path style="fill:rgb(0, 0, 0)" d="M 0,0 l 10,0 0,10 -10,0 z M 10,0 l 10,0 0,10 -10,0 z M 20,0 l 10,0 0,10 -10,0 z M 30,0 l 10,0 0,10 -10,0 z M 40,0 l 10,0 0,10 -10,0 z M 50,0 l 10,0 0,10 -10,0 z M 60,0 l 10,0 0,10 -10,0 z M 90,0 l 10,0 0,10 -10,0 z M 150,0 l 10,0 0,10 -10,0 z M 160,0 l 10,0 0,10 -10,0 z M 170,0 l 10,0 0,10 -10,0 z M 190,0 l 10,0 0,10 -10,0 z M 200,0 l 10,0 0,10 -10,0 z M 210,0 l 10,0 0,10 -10,0 z M 220,0 l 10,0 0,10 -10,0 z M 240,0 l 10,0 0,10 -10,0 z M 250,0 l 10,0 0,10 -10,0 z M 270,0 l 10,0 0,10 -10,0 z M 300,0 l 10,0 0,10 -10,0 z M 310,0 l 10,0 0,10 -10,0 z M 320,0 l 10,0 0,10 -10,0 z M 330,0 l 10,0 0,10 -10,0 z M 340,0 l 10,0 0,10 -10,0 z M 350,0 l 10,0 0,10 -10,0 z M 360,0 l 10,0 0,10 -10,0 z M 0,10 l 10,0 0,10 -10,0 z M 60,10 l 10,0 0,10 -10,0 z M 80,10 l 10,0 0,10 -10,0 z M 90,10 l 10,0 0,10 -10,0 z M 110,10 l 10,0 0,10 -10,0 z M 120,10 l 10,0 0,10 -10,0 z M 180,10 l 10,0 0,10 -10,0 z M 200,10 l 10,0 0,10 -10,0 z M 230,10 l 10,0 0,10 -10,0 z M 250,10 l 10,0 0,10 -10,0 z M 280,10 l 10,0 0,10 -10,0 z M 300,10 l 10,0 0,10 -10,0 z M 360,10 l 10,0 0,10 -10,0 z M 0,20 l 10,0 0,10 -10,0 z M 20,20 l 10,0 0,10 -10,0 z M 30,20 l 10,0 0,10 -10,0 z M 40,20 l 10,0 0,10 -10,0 z M 60,20 l 10,0 0,10 -10,0 z M 90,20 l 10,0 0,10 -10,0 z M 100,20 l 10,0 0,10 -10,0 z M 110,20 l 10,0 0,10 -10,0 z M 140,20 l 10,0 0,10 -10,0 z M 160,20 l 10,0 0,10 -10,0 z M 190,20 l 10,0 0,10 -10,0 z M 210,20 l 10,0 0,10 -10,0 z M 220,20 l 10,0 0,10 -10,0 z M 240,20 l 10,0 0,10 -10,0 z M 260,20 l 10,0 0,10 -10,0 z M 270,20 l 10,0 0,10 -10,0 z M 280,20 l 10,0 0,10 -10,0 z M 300,20 l 10,0 0,10 -10,0 z M 320,20 l 10,0 0,10 -10,0 z M 330,20 l 10,0 0,10 -10,0 z M 340,20 l 10,0 0,10 -10,0 z M 360,20 l 10,0 0,10 -10,0 z M 0,30 l 10,0 0,10 -10,0 z M 20,30 l 10,0 0,10 -10,0 z M 30,30 l 10,0 0,10 -10,0 z M 40,30 l 10,0 0,10 -10,0 z M 60,30 l 10,0 0,10 -10,0 z M 80,30 l 10,0 0,10 -10,0 z M 90,30 l 10,0 0,10 -10,0 z M 110,30 l 10,0 0,10 -10,0 z M 160,30 l 10,0 0,10 -10,0 z M 170,30 l 10,0 0,10 -10,0 z M 190,30 l 10,0 0,10 -10,0 z M 200,30 l 10,0 0,10 -10,0 z M 210,30 l 10,0 0,10 -10,0 z M 220,30 l 10,0 0,10 -10,0 z M 230,30 l 10,0 0,10 -10,0 z M 240,30 l 10,0 0,10 -10,0 z M 260,30 l 10,0 0,10 -10,0 z M 300,30 l 10,0 0,10 -10,0 z M 320,30 l 10,0 0,10 -10,0 z M 330,30 l 10,0 0,10 -10,0 z M 340,30 l 10,0 0,10 -10,0 z M 360,30 l 10,0 0,10 -10,0 z M 0,40 l 10,0 0,10 -10,0 z M 20,40 l 10,0 0,10 -10,0 z M 30,40 l 10,0 0,10 -10,0 z M 40,40 l 10,0 0,10 -10,0 z M 60,40 l 10,0 0,10 -10,0 z M 100,40 l 10,0 0,10 -10,0 z M 120,40 l 10,0 0,10 -10,0 z M 130,40 l 10,0 0,10 -10,0 z M 140,40 l 10,0 0,10 -10,0 z M 150,40 l 10,0 0,10 -10,0 z M 200,40 l 10,0 0,10 -10,0 z M 220,40 l 10,0 0,10 -10,0 z M 230,40 l 10,0 0,10 -10,0 z M 250,40 l 10,0 0,10 -10,0 z M 270,40 l 10,0 0,10 -10,0 z M 300,40 l 10,0 0,10 -10,0 z M 320,40 l 10,0 0,10 -10,0 z M 330,40 l 10,0 0,10 -10,0 z M 340,40 l 10,0 0,10 -10,0 z M 360,40 l 10,0 0,10 -10,0 z M 0,50 l 10,0 0,10 -10,0 z M 60,50 l 10,0 0,10 -10,0 z M 80,50 l 10,0 0,10 -10,0 z M 100,50 l 10,0 0,10 -10,0 z M 130,50 l 10,0 0,10 -10,0 z M 140,50 l 10,0 0,10 -10,0 z M 150,50 l 10,0 0,10 -10,0 z M 160,50 l 10,0 0,10 -10,0 z M 170,50 l 10,0 0,10 -10,0 z M 180,50 l 10,0 0,10 -10,0 z M 200,50 l 10,0 0,10 -10,0 z M 250,50 l 10,0 0,10 -10,0 z M 260,50 l 10,0 0,10 -10,0 z M 270,50 l 10,0 0,10 -10,0 z M 280,50 l 10,0 0,10 -10,0 z M 300,50 l 10,0 0,10 -10,0 z M 360,50 l 10,0 0,10 -10,0 z M 0,60 l 10,0 0,10 -10,0 z M 10,60 l 10,0 0,10 -10,0 z M 20,60 l 10,0 0,10 -10,0 z M 30,60 l 10,0 0,10 -10,0 z M 40,60 l 10,0 0,10 -10,0 z M 50,60 l 10,0 0,10 -10,0 z M 60,60 l 10,0 0,10 -10,0 z M 80,60 l 10,0 0,10 -10,0 z M 100,60 l 10,0 0,10 -10,0 z M 120,60 l 10,0 0,10 -10,0 z M 140,60 l 10,0 0,10 -10,0 z M 160,60 l 10,0 0,10 -10,0 z M 180,60 l 10,0 0,10 -10,0 z M 200,60 l 10,0 0,10 -10,0 z M 220,60 l 10,0 0,10 -10,0 z M 240,60 l 10,0 0,10 -10,0 z M 260,60 l 10,0 0,10 -10,0 z M 280,60 l 10,0 0,10 -10,0 z M 300,60 l 10,0 0,10 -10,0 z M 310,60 l 10,0 0,10 -10,0 z M 320,60 l 10,0 0,10 -10,0 z M 330,60 l 10,0 0,10 -10,0 z M 340,60 l 10,0 0,10 -10,0 z M 350,60 l 10,0 0,10 -10,0 z M 360,60 l 10,0 0,10 -10,0 z M 120,70 l 10,0 0,10 -10,0 z M 130,70 l 10,0 0,10 -10,0 z M 150,70 l 10,0 0,10 -10,0 z M 170,70 l 10,0 0,10 -10,0 z M 190,70 l 10,0 0,10 -10,0 z M 220,70 l 10,0 0,10 -10,0 z M 240,70 l 10,0 0,10 -10,0 z M 270,70 l 10,0 0,10 -10,0 z M 280,70 l 10,0 0,10 -10,0 z M 0,80 l 10,0 0,10 -10,0 z M 10,80 l 10,0 0,10 -10,0 z M 20,80 l 10,0 0,10 -10,0 z M 30,80 l 10,0 0,10 -10,0 z M 40,80 l 10,0 0,10 -10,0 z M 60,80 l 10,0 0,10 -10,0 z M 70,80 l 10,0 0,10 -10,0 z M 80,80 l 10,0 0,10 -10,0 z M 90,80 l 10,0 0,10 -10,0 z M 100,80 l 10,0 0,10 -10,0 z M 120,80 l 10,0 0,10 -10,0 z M 140,80 l 10,0 0,10 -10,0 z M 150,80 l 10,0 0,10 -10,0 z M 180,80 l 10,0 0,10 -10,0 z M 190,80 l 10,0 0,10 -10,0 z M 200,80 l 10,0 0,10 -10,0 z M 210,80 l 10,0 0,10 -10,0 z M 220,80 l 10,0 0,10 -10,0 z M 240,80 l 10,0 0,10 -10,0 z M 290,80 l 10,0 0,10 -10,0 z M 310,80 l 10,0 0,10 -10,0 z M 330,80 l 10,0 0,10 -10,0 z M 350,80 l 10,0 0,10 -10,0 z M 0,90 l 10,0 0,10 -10,0 z M 10,90 l 10,0 0,10 -10,0 z M 20,90 l 10,0 0,10 -10,0 z M 40,90 l 10,0 0,10 -10,0 z M 90,90 l 10,0 0,10 -10,0 z M 150,90 l 10,0 0,10 -10,0 z M 160,90 l 10,0 0,10 -10,0 z M 240,90 l 10,0 0,10 -10,0 z M 250,90 l 10,0 0,10 -10,0 z M 260,90 l 10,0 0,10 -10,0 z M 270,90 l 10,0 0,10 -10,0 z M 280,90 l 10,0 0,10 -10,0 z M 290,90 l 10,0 0,10 -10,0 z M 330,90 l 10,0 0,10 -10,0 z M 340,90 l 10,0 0,10 -10,0 z M 350,90 l 10,0 0,10 -10,0 z M 10,100 l 10,0 0,10 -10,0 z M 20,100 l 10,0 0,10 -10,0 z M 40,100 l 10,0 0,10 -10,0 z M 60,100 l 10,0 0,10 -10,0 z M 90,100 l 10,0 0,10 -10,0 z M 110,100 l 10,0 0,10 -10,0 z M 120,100 l 10,0 0,10 -10,0 z M 170,100 l 10,0 0,10 -10,0 z M 180,100 l 10,0 0,10 -10,0 z M 190,100 l 10,0 0,10 -10,0 z M 200,100 l 10,0 0,10 -10,0 z M 230,100 l 10,0 0,10 -10,0 z M 280,100 l 10,0 0,10 -10,0 z M 310,100 l 10,0 0,10 -10,0 z M 330,100 l 10,0 0,10 -10,0 z M 340,100 l 10,0 0,10 -10,0 z M 360,100 l 10,0 0,10 -10,0 z M 10,110 l 10,0 0,10 -10,0 z M 20,110 l 10,0 0,10 -10,0 z M 50,110 l 10,0 0,10 -10,0 z M 70,110 l 10,0 0,10 -10,0 z M 80,110 l 10,0 0,10 -10,0 z M 90,110 l 10,0 0,10 -10,0 z M 100,110 l 10,0 0,10 -10,0 z M 110,110 l 10,0 0,10 -10,0 z M 140,110 l 10,0 0,10 -10,0 z M 160,110 l 10,0 0,10 -10,0 z M 190,110 l 10,0 0,10 -10,0 z M 220,110 l 10,0 0,10 -10,0 z M 240,110 l 10,0 0,10 -10,0 z M 270,110 l 10,0 0,10 -10,0 z M 280,110 l 10,0 0,10 -10,0 z M 290,110 l 10,0 0,10 -10,0 z M 300,110 l 10,0 0,10 -10,0 z M 310,110 l 10,0 0,10 -10,0 z M 330,110 l 10,0 0,10 -10,0 z M 350,110 l 10,0 0,10 -10,0 z M 0,120 l 10,0 0,10 -10,0 z M 30,120 l 10,0 0,10 -10,0 z M 60,120 l 10,0 0,10 -10,0 z M 100,120 l 10,0 0,10 -10,0 z M 110,120 l 10,0 0,10 -10,0 z M 160,120 l 10,0 0,10 -10,0 z M 170,120 l 10,0 0,10 -10,0 z M 180,120 l 10,0 0,10 -10,0 z M 190,120 l 10,0 0,10 -10,0 z M 210,120 l 10,0 0,10 -10,0 z M 240,120 l 10,0 0,10 -10,0 z M 260,120 l 10,0 0,10 -10,0 z M 300,120 l 10,0 0,10 -10,0 z M 310,120 l 10,0 0,10 -10,0 z M 320,120 l 10,0 0,10 -10,0 z M 330,120 l 10,0 0,10 -10,0 z M 340,120 l 10,0 0,10 -10,0 z M 360,120 l 10,0 0,10 -10,0 z M 0,130 l 10,0 0,10 -10,0 z M 10,130 l 10,0 0,10 -10,0 z M 30,130 l 10,0 0,10 -10,0 z M 50,130 l 10,0 0,10 -10,0 z M 70,130 l 10,0 0,10 -10,0 z M 80,130 l 10,0 0,10 -10,0 z M 90,130 l 10,0 0,10 -10,0 z M 120,130 l 10,0 0,10 -10,0 z M 130,130 l 10,0 0,10 -10,0 z M 140,130 l 10,0 0,10 -10,0 z M 150,130 l 10,0 0,10 -10,0 z M 170,130 l 10,0 0,10 -10,0 z M 180,130 l 10,0 0,10 -10,0 z M 200,130 l 10,0 0,10 -10,0 z M 210,130 l 10,0 0,10 -10,0 z M 240,130 l 10,0 0,10 -10,0 z M 270,130 l 10,0 0,10 -10,0 z M 280,130 l 10,0 0,10 -10,0 z M 290,130 l 10,0 0,10 -10,0 z M 340,130 l 10,0 0,10 -10,0 z M 350,130 l 10,0 0,10 -10,0 z M 0,140 l 10,0 0,10 -10,0 z M 10,140 l 10,0 0,10 -10,0 z M 20,140 l 10,0 0,10 -10,0 z M 30,140 l 10,0 0,10 -10,0 z M 50,140 l 10,0 0,10 -10,0 z M 60,140 l 10,0 0,10 -10,0 z M 70,140 l 10,0 0,10 -10,0 z M 80,140 l 10,0 0,10 -10,0 z M 90,140 l 10,0 0,10 -10,0 z M 100,140 l 10,0 0,10 -10,0 z M 130,140 l 10,0 0,10 -10,0 z M 140,140 l 10,0 0,10 -10,0 z M 150,140 l 10,0 0,10 -10,0 z M 160,140 l 10,0 0,10 -10,0 z M 170,140 l 10,0 0,10 -10,0 z M 180,140 l 10,0 0,10 -10,0 z M 200,140 l 10,0 0,10 -10,0 z M 230,140 l 10,0 0,10 -10,0 z M 260,140 l 10,0 0,10 -10,0 z M 270,140 l 10,0 0,10 -10,0 z M 300,140 l 10,0 0,10 -10,0 z M 310,140 l 10,0 0,10 -10,0 z M 340,140 l 10,0 0,10 -10,0 z M 350,140 l 10,0 0,10 -10,0 z M 360,140 l 10,0 0,10 -10,0 z M 10,150 l 10,0 0,10 -10,0 z M 20,150 l 10,0 0,10 -10,0 z M 30,150 l 10,0 0,10 -10,0 z M 90,150 l 10,0 0,10 -10,0 z M 120,150 l 10,0 0,10 -10,0 z M 130,150 l 10,0 0,10 -10,0 z M 150,150 l 10,0 0,10 -10,0 z M 170,150 l 10,0 0,10 -10,0 z M 190,150 l 10,0 0,10 -10,0 z M 210,150 l 10,0 0,10 -10,0 z M 220,150 l 10,0 0,10 -10,0 z M 240,150 l 10,0 0,10 -10,0 z M 270,150 l 10,0 0,10 -10,0 z M 300,150 l 10,0 0,10 -10,0 z M 310,150 l 10,0 0,10 -10,0 z M 320,150 l 10,0 0,10 -10,0 z M 330,150 l 10,0 0,10 -10,0 z M 360,150 l 10,0 0,10 -10,0 z M 0,160 l 10,0 0,10 -10,0 z M 20,160 l 10,0 0,10 -10,0 z M 30,160 l 10,0 0,10 -10,0 z M 40,160 l 10,0 0,10 -10,0 z M 50,160 l 10,0 0,10 -10,0 z M 60,160 l 10,0 0,10 -10,0 z M 70,160 l 10,0 0,10 -10,0 z M 80,160 l 10,0 0,10 -10,0 z M 100,160 l 10,0 0,10 -10,0 z M 120,160 l 10,0 0,10 -10,0 z M 140,160 l 10,0 0,10 -10,0 z M 150,160 l 10,0 0,10 -10,0 z M 180,160 l 10,0 0,10 -10,0 z M 190,160 l 10,0 0,10 -10,0 z M 200,160 l 10,0 0,10 -10,0 z M 210,160 l 10,0 0,10 -10,0 z M 220,160 l 10,0 0,10 -10,0 z M 230,160 l 10,0 0,10 -10,0 z M 240,160 l 10,0 0,10 -10,0 z M 280,160 l 10,0 0,10 -10,0 z M 290,160 l 10,0 0,10 -10,0 z M 300,160 l 10,0 0,10 -10,0 z M 320,160 l 10,0 0,10 -10,0 z M 330,160 l 10,0 0,10 -10,0 z M 340,160 l 10,0 0,10 -10,0 z M 360,160 l 10,0 0,10 -10,0 z M 10,170 l 10,0 0,10 -10,0 z M 20,170 l 10,0 0,10 -10,0 z M 40,170 l 10,0 0,10 -10,0 z M 50,170 l 10,0 0,10 -10,0 z M 70,170 l 10,0 0,10 -10,0 z M 80,170 l 10,0 0,10 -10,0 z M 90,170 l 10,0 0,10 -10,0 z M 150,170 l 10,0 0,10 -10,0 z M 160,170 l 10,0 0,10 -10,0 z M 180,170 l 10,0 0,10 -10,0 z M 230,170 l 10,0 0,10 -10,0 z M 270,170 l 10,0 0,10 -10,0 z M 280,170 l 10,0 0,10 -10,0 z M 340,170 l 10,0 0,10 -10,0 z M 350,170 l 10,0 0,10 -10,0 z M 10,180 l 10,0 0,10 -10,0 z M 20,180 l 10,0 0,10 -10,0 z M 30,180 l 10,0 0,10 -10,0 z M 50,180 l 10,0 0,10 -10,0 z M 60,180 l 10,0 0,10 -10,0 z M 70,180 l 10,0 0,10 -10,0 z M 90,180 l 10,0 0,10 -10,0 z M 110,180 l 10,0 0,10 -10,0 z M 120,180 l 10,0 0,10 -10,0 z M 170,180 l 10,0 0,10 -10,0 z M 180,180 l 10,0 0,10 -10,0 z M 190,180 l 10,0 0,10 -10,0 z M 200,180 l 10,0 0,10 -10,0 z M 260,180 l 10,0 0,10 -10,0 z M 280,180 l 10,0 0,10 -10,0 z M 290,180 l 10,0 0,10 -10,0 z M 300,180 l 10,0 0,10 -10,0 z M 310,180 l 10,0 0,10 -10,0 z M 340,180 l 10,0 0,10 -10,0 z M 350,180 l 10,0 0,10 -10,0 z M 360,180 l 10,0 0,10 -10,0 z M 0,190 l 10,0 0,10 -10,0 z M 30,190 l 10,0 0,10 -10,0 z M 40,190 l 10,0 0,10 -10,0 z M 80,190 l 10,0 0,10 -10,0 z M 90,190 l 10,0 0,10 -10,0 z M 110,190 l 10,0 0,10 -10,0 z M 140,190 l 10,0 0,10 -10,0 z M 160,190 l 10,0 0,10 -10,0 z M 190,190 l 10,0 0,10 -10,0 z M 220,190 l 10,0 0,10 -10,0 z M 240,190 l 10,0 0,10 -10,0 z M 250,190 l 10,0 0,10 -10,0 z M 260,190 l 10,0 0,10 -10,0 z M 270,190 l 10,0 0,10 -10,0 z M 300,190 l 10,0 0,10 -10,0 z M 320,190 l 10,0 0,10 -10,0 z M 360,190 l 10,0 0,10 -10,0 z M 0,200 l 10,0 0,10 -10,0 z M 10,200 l 10,0 0,10 -10,0 z M 20,200 l 10,0 0,10 -10,0 z M 30,200 l 10,0 0,10 -10,0 z M 50,200 l 10,0 0,10 -10,0 z M 60,200 l 10,0 0,10 -10,0 z M 70,200 l 10,0 0,10 -10,0 z M 110,200 l 10,0 0,10 -10,0 z M 170,200 l 10,0 0,10 -10,0 z M 200,200 l 10,0 0,10 -10,0 z M 210,200 l 10,0 0,10 -10,0 z M 250,200 l 10,0 0,10 -10,0 z M 260,200 l 10,0 0,10 -10,0 z M 270,200 l 10,0 0,10 -10,0 z M 300,200 l 10,0 0,10 -10,0 z M 310,200 l 10,0 0,10 -10,0 z M 320,200 l 10,0 0,10 -10,0 z M 330,200 l 10,0 0,10 -10,0 z M 340,200 l 10,0 0,10 -10,0 z M 350,200 l 10,0 0,10 -10,0 z M 360,200 l 10,0 0,10 -10,0 z M 0,210 l 10,0 0,10 -10,0 z M 70,210 l 10,0 0,10 -10,0 z M 120,210 l 10,0 0,10 -10,0 z M 130,210 l 10,0 0,10 -10,0 z M 140,210 l 10,0 0,10 -10,0 z M 150,210 l 10,0 0,10 -10,0 z M 180,210 l 10,0 0,10 -10,0 z M 190,210 l 10,0 0,10 -10,0 z M 200,210 l 10,0 0,10 -10,0 z M 210,210 l 10,0 0,10 -10,0 z M 240,210 l 10,0 0,10 -10,0 z M 260,210 l 10,0 0,10 -10,0 z M 270,210 l 10,0 0,10 -10,0 z M 350,210 l 10,0 0,10 -10,0 z M 0,220 l 10,0 0,10 -10,0 z M 30,220 l 10,0 0,10 -10,0 z M 50,220 l 10,0 0,10 -10,0 z M 60,220 l 10,0 0,10 -10,0 z M 80,220 l 10,0 0,10 -10,0 z M 90,220 l 10,0 0,10 -10,0 z M 100,220 l 10,0 0,10 -10,0 z M 130,220 l 10,0 0,10 -10,0 z M 140,220 l 10,0 0,10 -10,0 z M 150,220 l 10,0 0,10 -10,0 z M 170,220 l 10,0 0,10 -10,0 z M 180,220 l 10,0 0,10 -10,0 z M 200,220 l 10,0 0,10 -10,0 z M 260,220 l 10,0 0,10 -10,0 z M 270,220 l 10,0 0,10 -10,0 z M 280,220 l 10,0 0,10 -10,0 z M 300,220 l 10,0 0,10 -10,0 z M 310,220 l 10,0 0,10 -10,0 z M 330,220 l 10,0 0,10 -10,0 z M 340,220 l 10,0 0,10 -10,0 z M 350,220 l 10,0 0,10 -10,0 z M 360,220 l 10,0 0,10 -10,0 z M 30,230 l 10,0 0,10 -10,0 z M 50,230 l 10,0 0,10 -10,0 z M 70,230 l 10,0 0,10 -10,0 z M 80,230 l 10,0 0,10 -10,0 z M 90,230 l 10,0 0,10 -10,0 z M 100,230 l 10,0 0,10 -10,0 z M 120,230 l 10,0 0,10 -10,0 z M 130,230 l 10,0 0,10 -10,0 z M 150,230 l 10,0 0,10 -10,0 z M 210,230 l 10,0 0,10 -10,0 z M 220,230 l 10,0 0,10 -10,0 z M 230,230 l 10,0 0,10 -10,0 z M 240,230 l 10,0 0,10 -10,0 z M 250,230 l 10,0 0,10 -10,0 z M 270,230 l 10,0 0,10 -10,0 z M 300,230 l 10,0 0,10 -10,0 z M 310,230 l 10,0 0,10 -10,0 z M 330,230 l 10,0 0,10 -10,0 z M 360,230 l 10,0 0,10 -10,0 z M 10,240 l 10,0 0,10 -10,0 z M 60,240 l 10,0 0,10 -10,0 z M 70,240 l 10,0 0,10 -10,0 z M 90,240 l 10,0 0,10 -10,0 z M 100,240 l 10,0 0,10 -10,0 z M 120,240 l 10,0 0,10 -10,0 z M 140,240 l 10,0 0,10 -10,0 z M 160,240 l 10,0 0,10 -10,0 z M 190,240 l 10,0 0,10 -10,0 z M 200,240 l 10,0 0,10 -10,0 z M 210,240 l 10,0 0,10 -10,0 z M 230,240 l 10,0 0,10 -10,0 z M 250,240 l 10,0 0,10 -10,0 z M 280,240 l 10,0 0,10 -10,0 z M 300,240 l 10,0 0,10 -10,0 z M 320,240 l 10,0 0,10 -10,0 z M 340,240 l 10,0 0,10 -10,0 z M 350,240 l 10,0 0,10 -10,0 z M 360,240 l 10,0 0,10 -10,0 z M 0,250 l 10,0 0,10 -10,0 z M 10,250 l 10,0 0,10 -10,0 z M 40,250 l 10,0 0,10 -10,0 z M 70,250 l 10,0 0,10 -10,0 z M 90,250 l 10,0 0,10 -10,0 z M 100,250 l 10,0 0,10 -10,0 z M 160,250 l 10,0 0,10 -10,0 z M 170,250 l 10,0 0,10 -10,0 z M 180,250 l 10,0 0,10 -10,0 z M 190,250 l 10,0 0,10 -10,0 z M 210,250 l 10,0 0,10 -10,0 z M 220,250 l 10,0 0,10 -10,0 z M 230,250 l 10,0 0,10 -10,0 z M 240,250 l 10,0 0,10 -10,0 z M 260,250 l 10,0 0,10 -10,0 z M 280,250 l 10,0 0,10 -10,0 z M 290,250 l 10,0 0,10 -10,0 z M 310,250 l 10,0 0,10 -10,0 z M 330,250 l 10,0 0,10 -10,0 z M 350,250 l 10,0 0,10 -10,0 z M 0,260 l 10,0 0,10 -10,0 z M 20,260 l 10,0 0,10 -10,0 z M 30,260 l 10,0 0,10 -10,0 z M 60,260 l 10,0 0,10 -10,0 z M 100,260 l 10,0 0,10 -10,0 z M 110,260 l 10,0 0,10 -10,0 z M 120,260 l 10,0 0,10 -10,0 z M 150,260 l 10,0 0,10 -10,0 z M 160,260 l 10,0 0,10 -10,0 z M 170,260 l 10,0 0,10 -10,0 z M 180,260 l 10,0 0,10 -10,0 z M 190,260 l 10,0 0,10 -10,0 z M 200,260 l 10,0 0,10 -10,0 z M 230,260 l 10,0 0,10 -10,0 z M 290,260 l 10,0 0,10 -10,0 z M 300,260 l 10,0 0,10 -10,0 z M 330,260 l 10,0 0,10 -10,0 z M 340,260 l 10,0 0,10 -10,0 z M 350,260 l 10,0 0,10 -10,0 z M 360,260 l 10,0 0,10 -10,0 z M 0,270 l 10,0 0,10 -10,0 z M 20,270 l 10,0 0,10 -10,0 z M 40,270 l 10,0 0,10 -10,0 z M 50,270 l 10,0 0,10 -10,0 z M 70,270 l 10,0 0,10 -10,0 z M 80,270 l 10,0 0,10 -10,0 z M 90,270 l 10,0 0,10 -10,0 z M 100,270 l 10,0 0,10 -10,0 z M 110,270 l 10,0 0,10 -10,0 z M 140,270 l 10,0 0,10 -10,0 z M 150,270 l 10,0 0,10 -10,0 z M 170,270 l 10,0 0,10 -10,0 z M 190,270 l 10,0 0,10 -10,0 z M 220,270 l 10,0 0,10 -10,0 z M 240,270 l 10,0 0,10 -10,0 z M 260,270 l 10,0 0,10 -10,0 z M 280,270 l 10,0 0,10 -10,0 z M 290,270 l 10,0 0,10 -10,0 z M 310,270 l 10,0 0,10 -10,0 z M 360,270 l 10,0 0,10 -10,0 z M 0,280 l 10,0 0,10 -10,0 z M 20,280 l 10,0 0,10 -10,0 z M 30,280 l 10,0 0,10 -10,0 z M 50,280 l 10,0 0,10 -10,0 z M 60,280 l 10,0 0,10 -10,0 z M 70,280 l 10,0 0,10 -10,0 z M 90,280 l 10,0 0,10 -10,0 z M 110,280 l 10,0 0,10 -10,0 z M 150,280 l 10,0 0,10 -10,0 z M 160,280 l 10,0 0,10 -10,0 z M 170,280 l 10,0 0,10 -10,0 z M 180,280 l 10,0 0,10 -10,0 z M 190,280 l 10,0 0,10 -10,0 z M 230,280 l 10,0 0,10 -10,0 z M 240,280 l 10,0 0,10 -10,0 z M 250,280 l 10,0 0,10 -10,0 z M 270,280 l 10,0 0,10 -10,0 z M 280,280 l 10,0 0,10 -10,0 z M 290,280 l 10,0 0,10 -10,0 z M 300,280 l 10,0 0,10 -10,0 z M 310,280 l 10,0 0,10 -10,0 z M 320,280 l 10,0 0,10 -10,0 z M 330,280 l 10,0 0,10 -10,0 z M 340,280 l 10,0 0,10 -10,0 z M 80,290 l 10,0 0,10 -10,0 z M 120,290 l 10,0 0,10 -10,0 z M 130,290 l 10,0 0,10 -10,0 z M 140,290 l 10,0 0,10 -10,0 z M 180,290 l 10,0 0,10 -10,0 z M 210,290 l 10,0 0,10 -10,0 z M 230,290 l 10,0 0,10 -10,0 z M 240,290 l 10,0 0,10 -10,0 z M 270,290 l 10,0 0,10 -10,0 z M 280,290 l 10,0 0,10 -10,0 z M 320,290 l 10,0 0,10 -10,0 z M 330,290 l 10,0 0,10 -10,0 z M 0,300 l 10,0 0,10 -10,0 z M 10,300 l 10,0 0,10 -10,0 z M 20,300 l 10,0 0,10 -10,0 z M 30,300 l 10,0 0,10 -10,0 z M 40,300 l 10,0 0,10 -10,0 z M 50,300 l 10,0 0,10 -10,0 z M 60,300 l 10,0 0,10 -10,0 z M 80,300 l 10,0 0,10 -10,0 z M 130,300 l 10,0 0,10 -10,0 z M 140,300 l 10,0 0,10 -10,0 z M 160,300 l 10,0 0,10 -10,0 z M 180,300 l 10,0 0,10 -10,0 z M 200,300 l 10,0 0,10 -10,0 z M 230,300 l 10,0 0,10 -10,0 z M 270,300 l 10,0 0,10 -10,0 z M 280,300 l 10,0 0,10 -10,0 z M 300,300 l 10,0 0,10 -10,0 z M 320,300 l 10,0 0,10 -10,0 z M 340,300 l 10,0 0,10 -10,0 z M 350,300 l 10,0 0,10 -10,0 z M 360,300 l 10,0 0,10 -10,0 z M 0,310 l 10,0 0,10 -10,0 z M 60,310 l 10,0 0,10 -10,0 z M 120,310 l 10,0 0,10 -10,0 z M 130,310 l 10,0 0,10 -10,0 z M 190,310 l 10,0 0,10 -10,0 z M 210,310 l 10,0 0,10 -10,0 z M 220,310 l 10,0 0,10 -10,0 z M 240,310 l 10,0 0,10 -10,0 z M 260,310 l 10,0 0,10 -10,0 z M 270,310 l 10,0 0,10 -10,0 z M 280,310 l 10,0 0,10 -10,0 z M 320,310 l 10,0 0,10 -10,0 z M 330,310 l 10,0 0,10 -10,0 z M 350,310 l 10,0 0,10 -10,0 z M 360,310 l 10,0 0,10 -10,0 z M 0,320 l 10,0 0,10 -10,0 z M 20,320 l 10,0 0,10 -10,0 z M 30,320 l 10,0 0,10 -10,0 z M 40,320 l 10,0 0,10 -10,0 z M 60,320 l 10,0 0,10 -10,0 z M 80,320 l 10,0 0,10 -10,0 z M 120,320 l 10,0 0,10 -10,0 z M 140,320 l 10,0 0,10 -10,0 z M 170,320 l 10,0 0,10 -10,0 z M 190,320 l 10,0 0,10 -10,0 z M 210,320 l 10,0 0,10 -10,0 z M 220,320 l 10,0 0,10 -10,0 z M 230,320 l 10,0 0,10 -10,0 z M 260,320 l 10,0 0,10 -10,0 z M 280,320 l 10,0 0,10 -10,0 z M 290,320 l 10,0 0,10 -10,0 z M 300,320 l 10,0 0,10 -10,0 z M 310,320 l 10,0 0,10 -10,0 z M 320,320 l 10,0 0,10 -10,0 z M 340,320 l 10,0 0,10 -10,0 z M 350,320 l 10,0 0,10 -10,0 z M 360,320 l 10,0 0,10 -10,0 z M 0,330 l 10,0 0,10 -10,0 z M 20,330 l 10,0 0,10 -10,0 z M 30,330 l 10,0 0,10 -10,0 z M 40,330 l 10,0 0,10 -10,0 z M 60,330 l 10,0 0,10 -10,0 z M 80,330 l 10,0 0,10 -10,0 z M 90,330 l 10,0 0,10 -10,0 z M 100,330 l 10,0 0,10 -10,0 z M 200,330 l 10,0 0,10 -10,0 z M 210,330 l 10,0 0,10 -10,0 z M 220,330 l 10,0 0,10 -10,0 z M 240,330 l 10,0 0,10 -10,0 z M 300,330 l 10,0 0,10 -10,0 z M 320,330 l 10,0 0,10 -10,0 z M 330,330 l 10,0 0,10 -10,0 z M 350,330 l 10,0 0,10 -10,0 z M 360,330 l 10,0 0,10 -10,0 z M 0,340 l 10,0 0,10 -10,0 z M 20,340 l 10,0 0,10 -10,0 z M 30,340 l 10,0 0,10 -10,0 z M 40,340 l 10,0 0,10 -10,0 z M 60,340 l 10,0 0,10 -10,0 z M 80,340 l 10,0 0,10 -10,0 z M 100,340 l 10,0 0,10 -10,0 z M 110,340 l 10,0 0,10 -10,0 z M 120,340 l 10,0 0,10 -10,0 z M 150,340 l 10,0 0,10 -10,0 z M 160,340 l 10,0 0,10 -10,0 z M 170,340 l 10,0 0,10 -10,0 z M 180,340 l 10,0 0,10 -10,0 z M 190,340 l 10,0 0,10 -10,0 z M 200,340 l 10,0 0,10 -10,0 z M 210,340 l 10,0 0,10 -10,0 z M 250,340 l 10,0 0,10 -10,0 z M 280,340 l 10,0 0,10 -10,0 z M 290,340 l 10,0 0,10 -10,0 z M 310,340 l 10,0 0,10 -10,0 z M 330,340 l 10,0 0,10 -10,0 z M 340,340 l 10,0 0,10 -10,0 z M 360,340 l 10,0 0,10 -10,0 z M 0,350 l 10,0 0,10 -10,0 z M 60,350 l 10,0 0,10 -10,0 z M 80,350 l 10,0 0,10 -10,0 z M 90,350 l 10,0 0,10 -10,0 z M 100,350 l 10,0 0,10 -10,0 z M 110,350 l 10,0 0,10 -10,0 z M 140,350 l 10,0 0,10 -10,0 z M 190,350 l 10,0 0,10 -10,0 z M 220,350 l 10,0 0,10 -10,0 z M 230,350 l 10,0 0,10 -10,0 z M 240,350 l 10,0 0,10 -10,0 z M 260,350 l 10,0 0,10 -10,0 z M 270,350 l 10,0 0,10 -10,0 z M 280,350 l 10,0 0,10 -10,0 z M 320,350 l 10,0 0,10 -10,0 z M 360,350 l 10,0 0,10 -10,0 z M 0,360 l 10,0 0,10 -10,0 z M 10,360 l 10,0 0,10 -10,0 z M 20,360 l 10,0 0,10 -10,0 z M 30,360 l 10,0 0,10 -10,0 z M 40,360 l 10,0 0,10 -10,0 z M 50,360 l 10,0 0,10 -10,0 z M 60,360 l 10,0 0,10 -10,0 z M 80,360 l 10,0 0,10 -10,0 z M 110,360 l 10,0 0,10 -10,0 z M 150,360 l 10,0 0,10 -10,0 z M 170,360 l 10,0 0,10 -10,0 z M 180,360 l 10,0 0,10 -10,0 z M 200,360 l 10,0 0,10 -10,0 z M 230,360 l 10,0 0,10 -10,0 z M 240,360 l 10,0 0,10 -10,0 z M 270,360 l 10,0 0,10 -10,0 z M 290,360 l 10,0 0,10 -10,0 z M 300,360 l 10,0 0,10 -10,0 z M 310,360 l 10,0 0,10 -10,0 z M 330,360 l 10,0 0,10 -10,0 z M 340,360 l 10,0 0,10 -10,0 z M 350,360 l 10,0 0,10 -10,0 z M 360,360 l 10,0 0,10 -10,0 z " />
	</g>
</svg>
